<?xml version="1.0" encoding="utf-8"?>
<!-- Generator: Adobe Illustrator 16.0.0, SVG Export Plug-In . SVG Version: 6.00 Build 0)  -->
<!DOCTYPE svg PUBLIC "-//W3C//DTD SVG 1.1//EN" "http://www.w3.org/Graphics/SVG/1.1/DTD/svg11.dtd">
<svg version="1.1" id="Layer_1" xmlns="http://www.w3.org/2000/svg" xmlns:xlink="http://www.w3.org/1999/xlink" x="0px" y="0px"
	 width="640px" height="480px" viewBox="0 0 640 480" enable-background="new 0 0 640 480" xml:space="preserve">
<g>
	<path id="chasis" fill="#333333" d="M393.302,74.14c-1.158,0-2.265-0.141-3.334-0.276c-0.75-0.096-1.459-0.187-2.133-0.221
		c-0.477-0.025-1.033,0.005-1.576,0.031c-0.504,0.023-1.013,0.047-1.511,0.047c-0.805,0-1.467-0.058-2.083-0.183
		c-3.271-0.668-3.869-2.728-4.307-4.231l-0.142-0.479c-0.626-2.036-1.902-3.265-4.018-3.862c-0.601-0.171-1.243-0.257-1.912-0.257
		c-3.093,0-6.96,1.916-9.853,4.881c-0.305,0.311-0.519,0.581-0.705,0.813c-0.951,1.186-1.942,2.18-4.454,2.33
		c-1.48,0.091-2.93-0.055-4.293-0.199l-0.529-0.055c-1.06-0.113-2.133-0.203-3.207-0.293c-1.947-0.164-3.96-0.334-5.889-0.631
		c-4.209-0.653-8.797-0.831-13.234-1.004c-1.75-0.067-3.49-0.135-5.197-0.229c-6.404-0.354-12.474-0.687-18.723-1.021
		c-1.081-0.059-2.18-0.086-3.36-0.086c-3.325,0-6.696,0.232-9.957,0.459c-1.906,0.131-3.812,0.263-5.73,0.354
		c-1.911,0.088-4.297,0.059-6.597,0.01c-1.067-0.021-2.133-0.045-3.194-0.049c-0.268,0-0.557,0.02-0.861,0.038
		c-0.447,0.026-0.917,0.054-1.378,0.054c-1.051,0-2.591-0.118-3.821-1.137c-1.241-1.02-1.694-2.643-2.059-3.945
		c-0.088-0.316-0.198-0.709-0.265-0.868c-0.935-2.217-2.583-3.341-4.898-3.341c-1.911,0-4.023,0.788-5.794,2.162
		c-0.402,0.312-0.765,0.609-1.105,0.887c-1.888,1.544-3.671,3.002-7.48,3.168c-0.463,0.021-1.176,0.101-1.93,0.185
		c-1.341,0.149-3.01,0.335-4.537,0.335c-1.996,0-3.421-0.314-4.486-0.992c-1.371-0.879-2.273-2.283-2.619-4.068
		c-0.463-2.391,0.165-5.397,1.527-7.311c1.301-1.828,2.778-2.324,4.082-2.762l0.819-0.281c0.123-0.043,0.258-0.09,0.383-0.135
		c0.001-0.014,0.003-0.029,0.005-0.045c0.058-0.527,0.098-1.05,0.139-1.57c0.192-2.473,0.411-5.275,2.261-7.81
		c1.62-2.218,4.465-3.801,8.699-4.837c2.284-0.556,4.564-0.731,6.769-0.9c3.602-0.276,7.003-0.538,9.75-2.464
		c3.776-2.654,6.491-6.737,9.117-10.687c0.352-0.529,0.702-1.056,1.054-1.579c0.672-0.999,1.325-2.01,1.976-3.021
		c2.43-3.769,4.943-7.667,8.504-10.931c4.978-4.566,9.621-6.652,16.024-7.198c5.598-0.479,11.326-0.544,16.683-0.544l2.729,0.005
		c2.209,0,4.499-0.1,6.714-0.195C335.643,0.102,337.996,0,340.328,0c2.168,0,4.088,0.088,5.867,0.271
		c3.365,0.347,6.955,0.391,10.427,0.432c2.432,0.029,4.945,0.06,7.401,0.192c1.469,0.08,3.002,0.039,4.543,0.002
		c0.938-0.023,1.881-0.046,2.817-0.046c3.105,0,6.714,0.23,9.941,1.937l0.257,0.136l0.845,0.722
		c9.841,8.328,13.149,17.546,15.087,28.823c0.494,2.893,0.973,6.037,1.133,9.448c0.039,0.841,0.104,1.689,0.169,2.542
		c0.193,2.532,0.393,5.151,0.003,7.806c-0.092,0.623-0.251,1.257-0.419,1.928c-0.199,0.794-0.662,2.644-0.429,3.14
		c0.006,0,0.035,0.019,0.086,0.041c0.096,0.044,0.44,0.075,0.668,0.097c0.95,0.088,2.54,0.233,3.863,1.701
		c2.016,2.224,1.386,5.139,1.148,6.234c-0.772,3.527-2.981,6.377-6.062,7.828C396.377,73.844,394.947,74.14,393.302,74.14z
		 M387.465,68.387c0.215,0,0.426,0.005,0.633,0.015c0.877,0.045,1.72,0.152,2.534,0.257c0.948,0.12,1.845,0.234,2.67,0.234
		c0.868,0,1.548-0.129,2.139-0.406c1.593-0.752,2.749-2.281,3.169-4.197c0.219-1.015,0.155-1.41,0.112-1.543
		c-0.127-0.02-0.323-0.038-0.478-0.053c-0.616-0.057-1.46-0.134-2.363-0.546c-4.385-1.993-3.16-6.882-2.571-9.231
		c0.136-0.542,0.264-1.055,0.318-1.417c0.304-2.073,0.135-4.292-0.045-6.643c-0.068-0.903-0.137-1.802-0.179-2.693
		c-0.146-3.129-0.598-6.083-1.062-8.809c-1.743-10.144-4.675-18.4-13.314-25.711l-0.396-0.339c-2.174-1.059-4.874-1.206-7.247-1.206
		c-0.895,0-1.794,0.022-2.689,0.044c-1.681,0.041-3.352,0.08-4.954-0.008c-2.346-0.126-4.804-0.156-7.181-0.185
		c-3.589-0.043-7.301-0.088-10.901-0.459c-1.599-0.164-3.342-0.244-5.33-0.244c-2.219,0-4.514,0.1-6.734,0.196
		c-2.27,0.098-4.617,0.2-6.94,0.2l-2.729-0.005c-5.241,0-10.834,0.064-16.237,0.526c-5.206,0.443-8.829,2.08-12.924,5.836
		c-3.063,2.808-5.287,6.257-7.641,9.908c-0.67,1.039-1.341,2.08-2.033,3.107c-0.347,0.515-0.691,1.034-1.038,1.554
		c-2.894,4.353-5.887,8.854-10.471,12.075c-3.926,2.754-8.215,3.083-12.363,3.402c-2.088,0.16-4.06,0.312-5.927,0.766
		c-3.658,0.895-5.122,2.035-5.705,2.834c-0.973,1.332-1.109,3.088-1.268,5.123c-0.044,0.574-0.09,1.15-0.153,1.725
		c-0.333,3.123-1.758,3.84-3.895,4.577l-0.858,0.294c-1.034,0.348-1.184,0.417-1.479,0.832c-0.477,0.67-0.861,2.179-0.649,3.271
		c0.062,0.32,0.173,0.566,0.291,0.642c-0.01-0.011,0.353,0.169,1.663,0.169c1.235,0,2.68-0.162,3.955-0.304
		c0.88-0.099,1.641-0.183,2.28-0.212c2.069-0.09,2.702-0.606,4.39-1.987c0.372-0.304,0.769-0.628,1.21-0.971
		c2.674-2.074,5.958-3.264,9.011-3.264c4.431,0,7.978,2.388,9.733,6.549c0.196,0.466,0.336,0.966,0.484,1.495
		c0.093,0.332,0.248,0.885,0.385,1.229c0.293,0.027,0.972,0.006,1.505-0.025c0.416-0.025,0.812-0.047,1.166-0.047
		c1.12,0.004,2.216,0.026,3.313,0.049c2.083,0.045,4.174,0.09,6.243-0.006c1.876-0.088,3.745-0.218,5.612-0.347
		c3.349-0.231,6.812-0.471,10.318-0.471c1.274,0,2.464,0.03,3.64,0.093c6.252,0.334,12.326,0.666,18.733,1.021
		c1.679,0.094,3.39,0.159,5.111,0.227c4.585,0.178,9.327,0.361,13.832,1.061c1.747,0.27,3.669,0.431,5.527,0.588
		c1.112,0.094,2.223,0.187,3.312,0.303l0.538,0.056c1.264,0.134,2.307,0.249,3.418,0.18c0.208-0.013,0.337-0.03,0.41-0.045
		c0.073-0.083,0.181-0.218,0.271-0.331c0.246-0.307,0.582-0.726,1.047-1.199c4.938-5.062,11.666-7.502,16.945-6.004
		c3.824,1.081,6.455,3.631,7.604,7.373l0.163,0.553c0.05,0.17,0.107,0.366,0.156,0.52c0.045,0.011,0.097,0.022,0.158,0.035
		c0.497,0.102,1.432,0.078,2.299,0.036C386.505,68.41,386.994,68.387,387.465,68.387z M293.968,40.159
		c-0.82,0-1.331-0.038-1.841-0.243c-2.097-0.845-3.921-3.96-3.041-6.561c0.606-1.792,1.408-3.661,2.183-5.468
		c0.423-0.987,0.843-1.967,1.223-2.916c0.22-0.55,0.426-1.251,0.643-1.994c0.656-2.239,1.473-5.025,3.639-6.781
		c2.277-1.843,5.396-1.949,7.902-2.035c0.706-0.024,1.372-0.047,1.94-0.104c1.172-0.116,2.368-0.3,3.634-0.495
		c1.828-0.282,3.718-0.573,5.594-0.655c0.289-0.012,0.564-0.019,0.832-0.019c4.374,0,5.74,2.451,6.116,4.507
		c0.275,1.511,0.178,3.062,0.084,4.563c-0.055,0.859-0.105,1.671-0.074,2.354c0.066,1.402-0.072,2.654-0.205,3.864
		c-0.101,0.906-0.195,1.763-0.197,2.635c0,0.287,0.02,0.596,0.039,0.917c0.104,1.76,0.318,5.423-3.085,6.734l-0.359,0.139
		l-0.384,0.029C317.791,38.692,298.508,40.159,293.968,40.159z M294.126,34.832c0.009,0.025,0.02,0.052,0.032,0.079
		c4.081-0.035,19.085-1.141,23.074-1.44c0.026-0.427-0.01-1.051-0.033-1.435c-0.025-0.436-0.048-0.857-0.047-1.239
		c0.002-1.152,0.117-2.192,0.228-3.198c0.117-1.055,0.227-2.051,0.18-3.044c-0.045-0.97,0.018-1.964,0.078-2.926
		c0.075-1.186,0.151-2.412-0.009-3.292c-0.009-0.052-0.019-0.094-0.028-0.127c-0.132-0.032-0.407-0.075-0.926-0.075
		c-0.198,0-0.402,0.005-0.609,0.014c-1.581,0.069-3.25,0.327-5.017,0.599c-1.279,0.197-2.602,0.401-3.912,0.53
		c-0.736,0.074-1.522,0.101-2.282,0.127c-1.813,0.062-3.869,0.132-4.778,0.867c-0.894,0.725-1.432,2.561-1.906,4.181
		c-0.243,0.828-0.494,1.684-0.807,2.466c-0.395,0.988-0.832,2.008-1.272,3.035C295.388,31.596,294.661,33.291,294.126,34.832z"/>
	<path id="front" fill="#333333" d="M255.52,61.508c-4.034,4.313-3.95,12.275,0.178,16.707c1.708,1.83,3.774,2.783,5.961,2.783
		c0.649,0,1.31-0.084,1.974-0.254c4.073-1.042,7.158-5.078,7.993-8.345c0.083-0.325,0.185-0.646,0.285-0.966
		c0.48-1.531,1.137-3.629,0.04-5.912c-0.878-1.803-2.679-3.644-4.078-4.67C263.975,58,259.238,58.262,255.52,61.508 M266.904,69.865
		c-0.128,0.408-0.255,0.819-0.362,1.236c-0.45,1.763-2.289,4.069-4.209,4.56c-0.637,0.164-1.623,0.234-2.797-1.023
		c-2.163-2.322-2.334-6.858-0.429-9.26l0,0c1.896-1.654,3.733-1.707,5.665-0.293c0.97,0.711,2.074,1.938,2.456,2.723
		C267.403,68.172,267.256,68.741,266.904,69.865z"/>
	<path id="back" fill="#333333" d="M378.026,65.954c-1.01-1.029-2.837-2.232-5.872-2.109l-0.2,0.008
		c-2.483,0.088-10.037,0.356-11.819,7.455c-0.436,1.727-0.062,3.847,0.112,4.658c0.412,6.477,6.427,9.684,6.686,9.819l0.343,0.148
		c1.035,0.364,2.081,0.544,3.111,0.544c1.742,0,3.44-0.514,4.964-1.527c2.934-1.949,4.9-5.57,5.133-9.45
		C380.753,71.038,379.949,67.915,378.026,65.954z M375.245,75.184c-0.134,2.237-1.232,4.355-2.799,5.396
		c-0.994,0.661-2.082,0.816-3.231,0.467c-0.688-0.415-3.61-2.369-3.738-5.549l-0.01-0.261l-0.062-0.253
		c-0.161-0.664-0.309-1.895-0.183-2.395l0.001-0.004c0.722-2.877,3.751-3.379,6.917-3.491l0.22-0.008
		c1.345-0.047,1.775,0.393,1.918,0.538C374.737,70.094,375.472,71.437,375.245,75.184z"/>
</g>
<g>
	<path fill="none" stroke="#333333" stroke-width="4" stroke-linecap="round" stroke-miterlimit="10" d="M415,71.306
		c12.498,0,12.498,0.6,24.996,0.6c12.5,0,12.5-0.287,24.999-0.287s12.499,0.034,24.999,0.034s12.5,0.101,24.999,0.101
		c12.5,0,12.5-0.324,25-0.324c12.501,0,12.501-0.269,25.003-0.269s12.502,0.018,25.004,0.018"/>
</g>
<g>
	<path fill="none" stroke="#333333" stroke-width="4" stroke-linecap="round" stroke-miterlimit="10" d="M51,71.232
		c12.498,0,12.498,0.454,24.996,0.454c12.499,0,12.499,0.243,24.999,0.243s12.5-0.81,25-0.81c12.499,0,12.499,0.745,24.999,0.745
		c12.5,0,12.5,0.021,25,0.021c12.502,0,12.502-0.744,25.003-0.744s12.501,0.495,25.003,0.495"/>
</g>
</svg>
